<svg xmlns="http://www.w3.org/2000/svg" xmlns:xlink="http://www.w3.org/1999/xlink" viewBox="0 0 840 1500"><defs><style>.cls-1{fill:none;}.cls-2{clip-path:url(#clip-path);}.cls-3{fill:#f4f2f2;}</style><clipPath id="clip-path" transform="translate(-0.5 553.5)"><rect class="cls-1" width="840" height="131" rx="65.5"/></clipPath></defs><g id="Capa_2" data-name="Capa 2"><g id="Capa_1-2" data-name="Capa 1"><g class="cls-2"><image width="840" height="1500" xlink:href="../../Downloads/2dd8b9586f07554cb53b8b04e4c9b30b.jpg"/></g><path class="cls-3" d="M180.7,60.55q.11-18.37,10.18-28.44t27.77-10.06h7.15v9.68h-8.47q-12.21,0-18.75,8.08t-6.77,20.74q.23,12.65,6.77,20.73t18.75,8.09h8.47v9.68h-7.15q-17.72,0-27.77-10.07T180.7,60.55Z" transform="translate(-0.5 553.5)"/><path class="cls-3" d="M267.82,68v9.9a16.36,16.36,0,0,0-10.23-3.19c-3.45,0-6.12.68-8,2a6.68,6.68,0,0,0-2.86,5.78q0,7.26,10.78,7.26H272v-21q0-13.3-13-13.31h-17.6V46.25h18.15q10.67,0,16.39,5.28t5.72,15.18V99.05H257.15q-9.34,0-14.85-4.18t-5.5-12.21q0-8,5.83-12.21t14.63-4.18A35.45,35.45,0,0,1,267.82,68Z" transform="translate(-0.5 553.5)"/><path class="cls-3" d="M294.33,46.25h48.51q7.8,0,12.43,3a13.94,13.94,0,0,1,6.21,7.7A38,38,0,0,1,363,68.25v30.8h-9.68V68.25q0-8.58-5.17-11.33-2.64-1.43-10.67-1.43h-4.51V99.05h-9.68V55.49H304V99.05h-9.68Z" transform="translate(-0.5 553.5)"/><path class="cls-3" d="M390.47,99.05h-9.68V55.49h-9l4.4-9.24h14.3Zm-10.12-63.8a6.52,6.52,0,0,1-1.43-4.07,6.28,6.28,0,0,1,1.43-4,6.23,6.23,0,0,1,8.8,0,6.34,6.34,0,0,1,0,8,5.27,5.27,0,0,1-4.4,1.82A5.34,5.34,0,0,1,380.35,35.25Z" transform="translate(-0.5 553.5)"/><path class="cls-3" d="M405.21,78.15V22.05h9.9v56.1a18.58,18.58,0,0,0,.93,6.43A6.26,6.26,0,0,0,419,88.1a13.08,13.08,0,0,0,3.85,1.38,29.55,29.55,0,0,0,4.95.33v9.24q-12.33,0-17.44-4.73T405.21,78.15Z" transform="translate(-0.5 553.5)"/><path class="cls-3" d="M441,53.18a25.58,25.58,0,0,1,19.25-8,25.84,25.84,0,0,1,10.5,2.14,27.43,27.43,0,0,1,16.44,25.36,28.18,28.18,0,0,1-2,10.73,27.09,27.09,0,0,1-5.66,8.74,26.89,26.89,0,0,1-38.5,0,27.12,27.12,0,0,1-5.67-8.74,28.18,28.18,0,0,1-2-10.73A26.61,26.61,0,0,1,441,53.18Zm19.25,1.21q-7.71,0-12.38,5.06t-4.67,13.2q0,8.14,4.67,13.2t12.38,5.06q7.8,0,12.42-5.12t4.63-13.14q0-8-4.63-13.15T460.21,54.39Z" transform="translate(-0.5 553.5)"/><path class="cls-3" d="M552.71,60.55Q552.61,78.93,542.54,89T514.76,99.05h-15v-77h15q17.72,0,27.78,10.06T552.71,60.55ZM516.08,89.37q12.21,0,18.76-8.09t6.76-20.73q-.21-12.64-6.76-20.74t-18.76-8.08h-5.94V89.37Z" transform="translate(-0.5 553.5)"/><path class="cls-3" d="M591.76,45.15q18.71.76,18.7,15.51Q610.46,79,586.37,79h-4.51V70.56h5.28q7.36,0,10.23-2.26t2.86-7.53a5.77,5.77,0,0,0-2.53-5.12,11.44,11.44,0,0,0-6.49-1.7q-7.82,0-12.26,5.5a20.33,20.33,0,0,0-4.46,13.2q0,8.14,4.79,13.2a16.4,16.4,0,0,0,12.48,5.06q6.93,0,11.33-3.41l6.6,6.49a27.57,27.57,0,0,1-17.93,6.16q-12.54,0-20-7.37t-7.48-19q0-13,7.37-21T591.76,45.15Z" transform="translate(-0.5 553.5)"/><path class="cls-3" d="M640.38,100.26a56.77,56.77,0,0,1-13.91-19.69Q622,69.79,617.61,46.25h10.12Q632,72.76,640.38,86.4,648.74,72.77,653,46.25h10.12q-4.39,23.53-8.85,34.32A56.8,56.8,0,0,1,640.38,100.26Z" transform="translate(-0.5 553.5)"/></g></g></svg>